# xmcd CD database file
#
# Track frame offsets:
#	150
#	16817
#	32856
#	47309
#	56293
#	73747
#	83554
#	98765
#	115444
#	127968
#
# Disc length: 1977 seconds
#
# Revision: 0
# Processed by: cddbd v1.5.2PL0 Copyright (c) Steve Scherf et al.
# Submitted via: CDex 1.70beta2
#
DISCID=7407b70a
DTITLE=Linda Tinney - Red
DYEAR=2010
DGENRE=Jazz
TTITLE0=The Princess and the Starfish
TTITLE1=Home
TTITLE2=Red
TTITLE3=Blue in Beijing
TTITLE4=Comfort Me
TTITLE5=Hymn
TTITLE6=Be Thou My Vision
TTITLE7=First Thing
TTITLE8=Catfish And The Crocodile
TTITLE9=You Make Me Live
EXTD=YEAR: 2010
EXTT0=
EXTT1=
EXTT2=
EXTT3=
EXTT4=
EXTT5=
EXTT6=
EXTT7=
EXTT8=
EXTT9=
PLAYORDER=
